<svg xmlns:dc="http://purl.org/dc/elements/1.1/" xmlns:cc="http://creativecommons.org/ns#" xmlns:rdf="http://www.w3.org/1999/02/22-rdf-syntax-ns#" xmlns:svg="http://www.w3.org/2000/svg" xmlns="http://www.w3.org/2000/svg" xmlns:xlink="http://www.w3.org/1999/xlink" id="svg52388" version="1.1" style="" viewBox="0 0 451 72" height="72px" width="451px">
    <g id="title" transform="translate(0 0)">
        <path d="m 363.19288,-7.2 c -2.08801,0 -3.88801,-0.72 -5.32801,-2.232 -1.512,-1.44 -2.23199,-3.24 -2.23199,-5.328 v -16.92 h 6.408 c 0.86399,0 1.65599,-0.288 2.30399,-0.936 0.57601,-0.576 0.936,-1.368 0.936,-2.304 0,-0.864 -0.35999,-1.656 -0.936,-2.304 -0.648,-0.576 -1.44,-0.936 -2.30399,-0.936 h -6.408 v -10.152 c 0,-1.008 -0.36001,-1.8 -1.08001,-2.52 -0.72,-0.72 -1.51199,-1.08 -2.52,-1.08 -1.008,0 -1.872,0.36 -2.592,1.08 -0.72,0.72 -1.00799,1.512 -1.00799,2.52 v 33.552 c 0,4.104 1.44,7.56 4.32,10.44 2.88,2.88 6.336,4.32 10.44,4.32 1.00799,0 1.8,-0.288 2.51999,-1.008 0.72001,-0.72 1.08,-1.584 1.08,-2.592 0,-1.008 -0.35999,-1.8 -1.08,-2.52 -0.71999,-0.72 -1.512,-1.08 -2.51999,-1.08 z" stroke-width="0" stroke-linejoin="miter" stroke-miterlimit="2" fill="#ffffff" stroke="#ffffff" transform="translate(0 312.598) translate(286.70969375 41.342) scale(1.25) translate(-348.43288 51.912)"/>
        <path d="m 407.429,-33.768 c -3.888,-3.888 -8.568,-5.904 -14.112,-5.904 -5.472,0 -10.224,2.016 -14.112,5.904 -3.888,3.888 -5.832,8.568 -5.832,14.112 0,5.544 1.944,10.224 5.832,14.112 3.888,3.888 8.64,5.832 14.112,5.832 4.968,0 9.36,-1.584 13.104,-4.824 v 1.368 c 0,1.008 0.288,1.8 1.008,2.448 0.648,0.72 1.44,1.008 2.448,1.008 0.936,0 1.728,-0.288 2.448,-1.008 0.648,-0.648 1.008,-1.44 1.008,-2.448 v -16.488 c 0,-5.544 -1.944,-10.224 -5.904,-14.112 z m -14.112,27.144 c -3.6,0 -6.696,-1.224 -9.216,-3.816 -2.592,-2.52 -3.816,-5.616 -3.816,-9.216 0,-3.6 1.224,-6.696 3.816,-9.216 2.52,-2.592 5.616,-3.888 9.216,-3.888 3.6,0 6.696,1.296 9.216,3.888 2.592,2.52 3.888,5.616 3.888,9.216 0,3.6 -1.296,6.696 -3.888,9.216 -2.52,2.592 -5.616,3.816 -9.216,3.816 z" stroke-width="0" stroke-linejoin="miter" stroke-miterlimit="2" fill="#ffffff" stroke="#ffffff" transform="translate(0 312.598) translate(322.88484375 56.642) scale(1.25) translate(-373.373 39.672)"/>
        <path d="m 454.78925,-3.024 c 0,-0.864 -0.288,-1.584 -0.792,-2.16 l -13.968,-17.136 13.248,-11.808 c 0.72,-0.576 1.152,-1.44 1.152,-2.448 0,-0.864 -0.36,-1.584 -0.936,-2.232 -0.648,-0.72 -1.44,-1.152 -2.448,-1.152 -0.864,0 -1.656,0.36 -2.232,0.936 l -17.496,15.624 v -29.304 c 0,-1.008 -0.36,-1.872 -1.008,-2.52 -0.648,-0.648 -1.512,-1.008 -2.52,-1.008 -1.08,0 -1.944,0.36 -2.592,1.008 -0.648,0.648 -0.936,1.512 -0.936,2.52 v 49.176 c 0,1.08 0.288,1.944 0.936,2.592 0.648,0.648 1.512,0.936 2.592,0.936 1.008,0 1.872,-0.288 2.52,-0.936 0.648,-0.648 1.008,-1.512 1.008,-2.592 v -11.016 l 3.6,-3.168 13.68,16.92 c 0.648,0.864 1.512,1.296 2.592,1.296 0.792,0 1.584,-0.288 2.304,-0.864 0.864,-0.72 1.296,-1.584 1.296,-2.664 z" stroke-width="0" stroke-linejoin="miter" stroke-miterlimit="2" fill="#ffffff" stroke="#ffffff" transform="translate(0 312.598) translate(391.49515625000004 35.94200000000001) scale(1.25) translate(-424.26125 56.232)"/>
        <path d="m 478.44687,0.288 c 4.752,0 8.928,-1.44 12.6,-4.464 0.79201,-0.576 1.152,-1.368 1.296,-2.304 0.072,-1.008 -0.144,-1.8 -0.79199,-2.592 -0.57601,-0.72 -1.36801,-1.152 -2.30401,-1.224 -0.936,-0.072 -1.8,0.144 -2.52,0.792 -2.44799,1.944 -5.184,2.88 -8.28,2.88 -3.6,0 -6.696,-1.224 -9.21599,-3.816 -2.59201,-2.52 -3.81601,-5.616 -3.81601,-9.216 0,-3.6 1.224,-6.696 3.81601,-9.288 2.51999,-2.52 5.61599,-3.816 9.21599,-3.816 2.952,0 5.61601,0.936 7.992,2.736 2.30401,1.8 3.816,4.104 4.608,6.912 h -12.6 c -0.936,0 -1.79999,0.36 -2.448,1.008 -0.648,0.648 -1.00799,1.512 -1.00799,2.448 0,0.936 0.35999,1.8 1.00799,2.448 0.64801,0.648 1.512,1.008 2.448,1.008 h 16.56 c 0.93601,0 1.728,-0.36 2.37601,-1.008 0.71999,-0.648 1.07999,-1.512 1.07999,-2.448 0,-5.544 -2.016,-10.224 -5.904,-14.112 -3.88799,-3.888 -8.56799,-5.904 -14.112,-5.904 -5.544,0 -10.224,2.016 -14.112,5.904 -3.888,3.888 -5.83199,8.568 -5.83199,14.112 0,5.544 1.94399,10.224 5.83199,14.112 3.888,3.888 8.568,5.832 14.112,5.832 z" stroke-width="0" stroke-linejoin="miter" stroke-miterlimit="2" fill="#ffffff" stroke="#ffffff" transform="translate(0 312.598) translate(439.29719374999996 56.642) scale(1.25) translate(-458.50288 39.672)"/>
        <path d="m 539.43763,0.216 c 1.008,0 1.87199,-0.36 2.59199,-1.08 0.72001,-0.72 1.00801,-1.584 1.00801,-2.592 V -21.96 c 0,-5.04 -1.80001,-9.36 -5.32801,-12.96 -3.59999,-3.6 -7.992,-5.4 -13.03199,-5.4 -5.11201,0 -9.432,1.8 -13.03201,5.4 -3.6,3.6 -5.39999,7.92 -5.39999,12.96 v 18.504 c 0,1.008 0.35999,1.872 1.07999,2.592 0.72,0.72 1.584,1.008 2.52,1.008 1.00801,0 1.872,-0.288 2.59201,-1.008 0.72,-0.72 1.00799,-1.584 1.00799,-2.592 V -21.96 c 0,-3.024 1.152,-5.688 3.312,-7.848 2.16001,-2.232 4.82401,-3.312 7.92001,-3.312 3.096,0 5.688,1.08 7.91999,3.312 2.16,2.16 3.24,4.824 3.24,7.848 v 18.576 c 0,0.936 0.36001,1.8 1.08001,2.52 0.71999,0.72 1.58399,1.08 2.52,1.08 z" stroke-width="0" stroke-linejoin="miter" stroke-miterlimit="2" fill="#ffffff" stroke="#ffffff" transform="translate(0 312.598) translate(503.97563125 55.832) scale(1.25) translate(-506.24563 40.32)"/>
        <path d="m 572.24375,0.288 c 4.752,0 8.928,-1.44 12.6,-4.464 0.792,-0.576 1.152,-1.368 1.296,-2.304 0.072,-1.008 -0.144,-1.8 -0.792,-2.592 -0.576,-0.72 -1.368,-1.152 -2.304,-1.224 -0.936,-0.072 -1.8,0.144 -2.52,0.792 -2.448,1.944 -5.184,2.88 -8.28,2.88 -3.6,0 -6.696,-1.224 -9.216,-3.816 -2.592,-2.52 -3.816,-5.616 -3.816,-9.216 0,-3.6 1.224,-6.696 3.816,-9.288 2.52,-2.52 5.616,-3.816 9.216,-3.816 2.952,0 5.616,0.936 7.992,2.736 2.304,1.8 3.816,4.104 4.608,6.912 h -12.6 c -0.936,0 -1.8,0.36 -2.448,1.008 -0.648,0.648 -1.008,1.512 -1.008,2.448 0,0.936 0.36,1.8 1.008,2.448 0.648,0.648 1.512,1.008 2.448,1.008 h 16.56 c 0.936,0 1.728,-0.36 2.376,-1.008 0.72,-0.648 1.08,-1.512 1.08,-2.448 0,-5.544 -2.016,-10.224 -5.904,-14.112 -3.888,-3.888 -8.568,-5.904 -14.112,-5.904 -5.544,0 -10.224,2.016 -14.112,5.904 -3.888,3.888 -5.832,8.568 -5.832,14.112 0,5.544 1.944,10.224 5.832,14.112 3.888,3.888 8.568,5.832 14.112,5.832 z" stroke-width="0" stroke-linejoin="miter" stroke-miterlimit="2" fill="#ffffff" stroke="#ffffff" transform="translate(0 312.598) translate(566.54328125 56.642) scale(1.25) translate(-552.29975 39.672)"/>
        <path d="m 642.70025,-38.592 c -0.504,-0.504 -1.224,-0.792 -2.232,-0.792 -1.872,0 -3.096,1.152 -3.744,3.312 l -7.92,24.768 -6.48,-25.344 c -0.288,-0.792 -0.72,-1.44 -1.296,-1.944 -0.576,-0.504 -1.368,-0.792 -2.232,-0.792 -1.008,0 -1.8,0.288 -2.376,0.792 -0.576,0.504 -1.008,1.152 -1.224,1.944 l -7.344,24.84 -7.776,-24.264 c -0.432,-1.152 -0.936,-1.944 -1.512,-2.52 -0.576,-0.504 -1.368,-0.792 -2.232,-0.792 -2.016,0 -3.024,1.008 -3.024,3.024 0,0.72 0.072,1.44 0.288,2.016 l 10.656,31.968 c 0.216,0.72 0.648,1.296 1.296,1.728 0.648,0.432 1.368,0.648 2.16,0.648 0.72,0 1.44,-0.216 2.088,-0.648 0.648,-0.432 1.08,-1.008 1.368,-1.728 l 7.416,-26.136 7.056,26.136 c 0.144,0.72 0.576,1.296 1.224,1.728 0.648,0.432 1.368,0.648 2.232,0.648 0.72,0 1.44,-0.216 2.088,-0.648 0.576,-0.432 1.008,-1.008 1.296,-1.728 l 10.656,-31.968 c 0.216,-0.576 0.36,-1.296 0.36,-2.088 0,-0.864 -0.288,-1.584 -0.792,-2.16 z" stroke-width="0" stroke-linejoin="miter" stroke-miterlimit="2" fill="#ffffff" stroke="#ffffff" transform="translate(0 312.598) translate(622.80390625 57.001999999999995) scale(1.25) translate(-593.30825 39.384)"/>
        <path d="m 673.26537,-38.16 c -2.448,-1.008 -5.256,-1.512 -8.352,-1.512 -2.592,0 -4.96799,0.432 -7.19999,1.224 -2.30401,0.864 -4.10401,2.088 -5.47201,3.672 -1.44,1.656 -2.088,3.672 -2.088,5.976 0,5.832 4.60801,9.648 13.82401,11.376 3.52799,0.72 6.04799,1.512 7.55999,2.52 1.44001,1.008 2.232,2.232 2.232,3.672 0,1.584 -0.79199,2.808 -2.304,3.672 -1.51199,0.936 -3.6,1.368 -6.336,1.368 -2.08799,0 -4.03199,-0.36 -5.832,-1.08 -1.87199,-0.72 -3.24,-1.656 -4.104,-2.664 -0.86399,-0.864 -1.8,-1.296 -2.736,-1.296 -0.79199,0 -1.656,0.36 -2.52,1.008 -1.00799,0.72 -1.43999,1.656 -1.43999,2.808 0,0.864 0.288,1.656 0.93599,2.232 1.58401,1.656 3.888,2.952 6.768,3.96 2.88,1.008 5.904,1.512 9.216,1.512 3.24,0 6.048,-0.504 8.352,-1.512 2.304,-1.008 4.104,-2.448 5.32801,-4.248 1.15199,-1.8 1.79999,-3.816 1.79999,-6.048 0,-2.952 -1.152,-5.4 -3.312,-7.272 -2.15999,-1.872 -5.904,-3.312 -11.08799,-4.392 -2.592,-0.504 -4.53601,-1.008 -5.832,-1.584 -1.36801,-0.576 -2.30401,-1.152 -2.736,-1.8 -0.504,-0.648 -0.72,-1.44 -0.72,-2.448 0,-1.296 0.648,-2.376 2.08799,-3.096 1.44001,-0.72 3.24,-1.152 5.472,-1.152 1.87201,0 3.528,0.288 4.89601,0.72 1.29599,0.432 2.592,1.224 3.81599,2.304 1.008,0.936 2.08801,1.368 3.384,1.368 0.792,0 1.44001,-0.144 2.01601,-0.576 0.79199,-0.648 1.22399,-1.368 1.22399,-2.232 0,-0.72 -0.36,-1.512 -0.936,-2.304 -1.44,-1.728 -3.45599,-3.168 -5.904,-4.176 z" stroke-width="0" stroke-linejoin="miter" stroke-miterlimit="2" fill="#ffffff" stroke="#ffffff" transform="translate(0 312.598) translate(696.79031875 56.642) scale(1.25) translate(-648.49738 39.672)"/>
    </g>
</svg>